<svg width="19" height="26" viewBox="0 0 19 26" fill="none" xmlns="http://www.w3.org/2000/svg">
<path d="M18.1296 20.8365C18.6211 18.3323 18.8731 15.5859 18.8606 12.8198C18.8486 10.171 18.5968 7.54899 18.1295 5.16354H0.731254C0.239945 7.66797 -0.0120566 10.4145 0.000443383 13.1804C0.0123574 15.8296 0.264066 18.4516 0.731205 20.8365H18.1296ZM9.43033 18.3088C7.41934 18.3088 5.67334 17.6782 5.67334 15.6134C5.67334 13.6888 7.3587 12.1231 9.43033 12.1231C11.502 12.1231 13.1873 13.6888 13.1873 15.6134C13.1873 17.6771 11.4432 18.3088 9.43033 18.3088ZM13.3513 8.98737C14.4734 8.78633 15.5384 9.56836 15.7316 10.7357C15.9475 12.04 14.9864 13.2416 13.6981 13.2416C12.723 13.2416 11.8449 12.5179 11.6703 11.4629C11.4771 10.2957 12.2289 9.18836 13.3513 8.98737ZM9.43033 7.57007C10.5665 7.57007 11.4909 8.53141 11.4909 9.71309C11.4909 10.8948 10.5666 11.8561 9.43033 11.8561C8.2941 11.8561 7.36973 10.8948 7.36973 9.71309C7.36973 8.53141 8.29419 7.57007 9.43033 7.57007ZM5.15972 8.95639C6.2959 8.95639 7.22032 9.91773 7.22032 11.0994C7.22032 12.281 6.29595 13.2424 5.15972 13.2424C4.02349 13.2424 3.09912 12.2811 3.09912 11.0994C3.09917 9.91773 4.02354 8.95639 5.15972 8.95639Z" fill="#CBCBCB"/>
<path d="M0.713089 3.34958H18.1478L18.6585 1.11688C18.7888 0.547219 18.3727 0 17.8101 0H1.05074C0.487649 0 0.0721216 0.547625 0.202297 1.11693L0.713089 3.34958Z" fill="#CBCBCB"/>
<path d="M18.1477 22.6505H0.713092L0.202399 24.8831C0.0720276 25.4528 0.488141 26 1.05074 26H17.81C18.3731 26 18.7886 25.4524 18.6585 24.8831L18.1477 22.6505Z" fill="#CBCBCB"/>
</svg>
