<svg width="23" height="23" viewBox="0 0 23 23" fill="none" xmlns="http://www.w3.org/2000/svg">
<path d="M23 4.04052L21.3823 4.40523C20.6927 1.85813 18.5884 0 16.1062 0C13.0652 0 10.5911 2.78852 10.5911 6.21623C10.5911 6.68924 10.6384 7.14996 10.7277 7.59294L0.619708 0.105671L0.282659 1.2633C-0.677366 4.56124 1.05693 7.56586 1.78453 8.63032C1.69469 9.09437 1.59873 9.82232 1.65498 10.6464C1.78471 12.5458 2.63486 14.0595 4.1136 15.0239C4.43941 15.2364 4.77799 15.4053 5.12375 15.5315C5.45936 16.3547 5.92988 17.1109 6.52136 17.7622C6.89143 18.1698 7.29694 18.5227 7.7294 18.8182C7.42272 19.1005 7.03136 19.2703 6.60537 19.2703H5.37496C5.03346 18.185 4.11395 17.4054 3.03547 17.4054V19.2703C3.49161 19.2703 3.86271 19.6885 3.86271 20.2027C3.86271 20.7169 3.49161 21.1351 3.03547 21.1351V23C4.11395 23 5.03346 22.2204 5.37496 21.1351H6.60537C7.71763 21.1351 8.70771 20.5355 9.33572 19.6085C9.88861 19.786 10.4642 19.8821 11.0506 19.8912C11.0816 19.8917 11.1126 19.8919 11.1436 19.8919C12.8947 19.8919 14.5418 19.1311 15.7902 17.7431C17.0609 16.3302 17.7607 14.4442 17.7607 12.4324C17.7607 12.3376 17.7588 12.2429 17.7556 12.1484C19.6576 11.4751 21.1187 9.66931 21.5145 7.43543L23 7.77031L21.897 5.90539L23 4.04052ZM17.2092 6.52702C16.7524 6.52702 16.382 6.10955 16.382 5.59456C16.382 5.07962 16.7524 4.66215 17.2092 4.66215C17.6661 4.66215 18.0365 5.07962 18.0365 5.59456C18.0364 6.10955 17.6661 6.52702 17.2092 6.52702Z" fill="#CBCBCB"/>
</svg>
