<svg width="214" height="48" viewBox="0 0 214 48" fill="none" xmlns="http://www.w3.org/2000/svg">
<path d="M65.76 13.42V14.46H68.42V13.42H65.76ZM68.36 16.26V16.96H72.2V19.28H68.36V20.4C68.36 21.64 68.08 22.22 67.18 22.56C66.28 22.9 65.18 22.92 63.76 22.92C63.6 22.2 63.2 21.22 62.86 20.58C63.64 20.64 64.8 20.62 65.08 20.62C65.38 20.62 65.48 20.56 65.48 20.3V19.28H60.52C61.04 19.7 61.52 20.14 61.82 20.52L59.72 22.28C59.26 21.58 58.14 20.58 57.24 19.9L58 19.28H53.82V16.96H65.48V16.26H63.08V11.62H71.3V16.26H68.36ZM54.3 16.74L54.16 14.6C54.94 14.58 55.88 14.56 56.88 14.52V13.58H54.42V11.62H62.26V13.58H59.6V14.44L62.5 14.34L62.48 16.34C59.56 16.5 56.52 16.64 54.3 16.74ZM69.52 6.86H72.2V9.04H69.52V11.16H56.1V9.32H66.66V8.86H53.88V7.1H66.66V6.62H56.2V4.78H69.52V6.86ZM80.68 12.24L81.02 14.92C80.3 15.1 79.56 15.3 78.82 15.48V19.78C78.82 21.1 78.6 21.8 77.84 22.22C77.08 22.66 76.04 22.74 74.6 22.74C74.52 22 74.16 20.84 73.82 20.12C74.52 20.14 75.34 20.14 75.6 20.14C75.88 20.14 75.98 20.04 75.98 19.76V16.16L74.16 16.6L73.44 13.82C74.18 13.68 75.04 13.52 75.98 13.32V10.26H73.7V7.58H75.98V3.9H78.82V7.58H80.82V10.26H78.82V12.68C79.44 12.54 80.06 12.38 80.68 12.24ZM89.2 11.06L91.58 12.52C90.72 14.42 89.44 16.3 87.94 17.94C88.36 18.66 88.84 19.1 89.42 19.2C89.84 19.26 90.06 18.34 90.16 16.22C90.72 16.86 92.02 17.66 92.58 17.94C92 21.94 90.76 22.82 89.58 22.7C87.86 22.5 86.58 21.62 85.66 20.12C84.6 20.96 83.48 21.7 82.32 22.26C81.78 21.52 80.82 20.6 79.98 20.02C81.6 19.4 83.12 18.46 84.46 17.32C83.98 15.74 83.66 13.82 83.46 11.6L81.3 11.82L81.02 9.04L83.24 8.84C83.14 7.34 83.08 5.74 83.04 4.02H86.02C86.02 5.62 86.06 7.14 86.14 8.56L88.86 8.32C88.28 7.5 87.2 6.26 86.42 5.36L88.64 3.94C89.46 4.82 90.7 6.08 91.32 6.86L89.22 8.28L92.08 8.02L92.36 10.72L86.36 11.32C86.48 12.64 86.66 13.82 86.88 14.84C87.84 13.66 88.62 12.36 89.2 11.06ZM99.2 7.08L97.12 9.04C96.58 8.26 95.36 7.1 94.4 6.3L96.36 4.54C97.3 5.26 98.6 6.34 99.2 7.08ZM98.46 11.76L96.62 13.96C95.96 13.24 94.46 12.16 93.36 11.46L95.08 9.5C96.16 10.1 97.7 11.06 98.46 11.76ZM96.6 14.26L98.98 15.94C98.24 18.1 97.36 20.3 96.46 22.34L93.8 20.68C94.62 19.12 95.74 16.64 96.6 14.26ZM109.92 15.24H106.9C107.14 15.82 107.4 16.36 107.72 16.86C108.48 16.38 109.32 15.76 109.92 15.24ZM102.24 11.78V12.76H108.2V11.78H102.24ZM108.2 8.4H102.24V9.38H108.2V8.4ZM110.08 15.24L111.82 17.08C111.08 17.64 110.18 18.2 109.36 18.68C110.22 19.36 111.28 19.88 112.58 20.2C111.94 20.78 111.14 21.94 110.76 22.72C107.1 21.5 105.3 19 104.14 15.24H102.24V19.14L105.32 18.32C105.38 19.1 105.58 20.22 105.76 20.84C101.2 22.22 100.32 22.58 99.76 22.98C99.5 22.38 98.72 21.3 98.26 20.88C98.76 20.46 99.32 19.64 99.32 18.5V5.92H103.88C103.7 5.38 103.5 4.8 103.3 4.32L106 3.68C106.32 4.36 106.68 5.22 106.9 5.92H111.04V15.24H110.08ZM119.2 7.08L117.12 9.04C116.58 8.26 115.36 7.1 114.4 6.3L116.36 4.54C117.3 5.26 118.6 6.34 119.2 7.08ZM118.46 11.76L116.62 13.96C115.96 13.24 114.46 12.16 113.36 11.46L115.08 9.5C116.16 10.1 117.7 11.06 118.46 11.76ZM116.6 14.26L118.98 15.94C118.24 18.1 117.36 20.3 116.46 22.34L113.8 20.68C114.62 19.12 115.74 16.64 116.6 14.26ZM129.92 15.24H126.9C127.14 15.82 127.4 16.36 127.72 16.86C128.48 16.38 129.32 15.76 129.92 15.24ZM122.24 11.78V12.76H128.2V11.78H122.24ZM128.2 8.4H122.24V9.38H128.2V8.4ZM130.08 15.24L131.82 17.08C131.08 17.64 130.18 18.2 129.36 18.68C130.22 19.36 131.28 19.88 132.58 20.2C131.94 20.78 131.14 21.94 130.76 22.72C127.1 21.5 125.3 19 124.14 15.24H122.24V19.14L125.32 18.32C125.38 19.1 125.58 20.22 125.76 20.84C121.2 22.22 120.32 22.58 119.76 22.98C119.5 22.38 118.72 21.3 118.26 20.88C118.76 20.46 119.32 19.64 119.32 18.5V5.92H123.88C123.7 5.38 123.5 4.8 123.3 4.32L126 3.68C126.32 4.36 126.68 5.22 126.9 5.92H131.04V15.24H130.08ZM54.72 45V30.1H59.96C63.22 30.1 65.92 31.28 65.92 34.96C65.92 38.5 63.2 40.06 60.04 40.06H58.3V45H54.72ZM58.3 37.24H59.86C61.6 37.24 62.44 36.42 62.44 34.96C62.44 33.46 61.48 32.94 59.76 32.94H58.3V37.24ZM72.8422 45.28C69.5622 45.28 67.0422 43.08 67.0422 39.3C67.0422 35.62 69.7022 33.34 72.4422 33.34C75.7222 33.34 77.3222 35.72 77.3222 38.82C77.3222 39.46 77.2422 40.08 77.1622 40.36H70.4822C70.8022 41.92 71.8822 42.56 73.3222 42.56C74.1422 42.56 74.9022 42.32 75.7222 41.84L76.9022 43.98C75.7222 44.82 74.1622 45.28 72.8422 45.28ZM70.4222 38.02H74.3022C74.3022 36.9 73.8022 36.06 72.5022 36.06C71.5222 36.06 70.6622 36.68 70.4222 38.02ZM83.8419 45.28C80.9819 45.28 79.8219 43.46 79.8219 40.78V36.4H78.2819V33.76L80.0419 33.62L80.4419 30.6H83.3819V33.62H86.0619V36.4H83.3819V40.74C83.3819 42 83.9819 42.5 84.8219 42.5C85.1819 42.5 85.5819 42.38 85.8619 42.28L86.4219 44.86C85.8219 45.04 85.0019 45.28 83.8419 45.28ZM93.1184 45V30.1H102.618V33.08H96.6984V36.34H101.778V39.32H96.6984V45H93.1184ZM104.909 45V33.62H108.469V45H104.909ZM106.689 32.04C105.489 32.04 104.709 31.32 104.709 30.2C104.709 29.1 105.489 28.38 106.689 28.38C107.869 28.38 108.669 29.1 108.669 30.2C108.669 31.32 107.869 32.04 106.689 32.04ZM111.335 45V33.62H114.235L114.495 35.04H114.555C115.495 34.12 116.655 33.34 118.195 33.34C120.675 33.34 121.735 35.12 121.735 37.96V45H118.175V38.4C118.175 36.82 117.755 36.38 116.855 36.38C116.055 36.38 115.575 36.74 114.895 37.4V45H111.335ZM128.579 45.28C125.739 45.28 123.919 43.02 123.919 39.3C123.919 35.58 126.259 33.34 128.619 33.34C129.879 33.34 130.619 33.8 131.359 34.52L131.239 32.82V29.02H134.799V45H131.899L131.639 43.9H131.559C130.759 44.7 129.659 45.28 128.579 45.28ZM129.519 42.36C130.199 42.36 130.739 42.14 131.239 41.4V36.92C130.699 36.42 130.059 36.24 129.459 36.24C128.479 36.24 127.579 37.16 127.579 39.26C127.579 41.44 128.299 42.36 129.519 42.36ZM142.823 45.28C139.543 45.28 137.023 43.08 137.023 39.3C137.023 35.62 139.683 33.34 142.423 33.34C145.703 33.34 147.303 35.72 147.303 38.82C147.303 39.46 147.223 40.08 147.143 40.36H140.463C140.783 41.92 141.863 42.56 143.303 42.56C144.123 42.56 144.883 42.32 145.703 41.84L146.883 43.98C145.703 44.82 144.143 45.28 142.823 45.28ZM140.403 38.02H144.283C144.283 36.9 143.783 36.06 142.483 36.06C141.503 36.06 140.643 36.68 140.403 38.02ZM149.577 45V33.62H152.477L152.737 35.6H152.797C153.637 34.08 154.897 33.34 156.037 33.34C156.717 33.34 157.097 33.44 157.417 33.58L156.837 36.64C156.417 36.54 156.077 36.46 155.577 36.46C154.737 36.46 153.717 37 153.137 38.5V45H149.577ZM171.464 47.12C166.844 47.12 162.644 44.34 162.644 38.38C162.644 31.94 167.404 27.66 173.144 27.66C178.144 27.66 181.344 31.08 181.344 35.94C181.344 40.16 178.464 42.26 176.044 42.26C174.704 42.26 173.604 41.64 173.344 40.52H173.304C172.684 41.44 171.484 42.06 170.544 42.06C168.724 42.06 167.484 40.68 167.484 38.56C167.484 35.72 169.524 32.88 172.144 32.88C172.904 32.88 173.504 33.22 173.864 34.04H173.924L174.264 33.06H176.444L175.384 38.2C175.064 39.48 175.404 40.08 176.404 40.08C177.804 40.08 179.124 38.5 179.124 36.02C179.124 32.76 177.384 29.8 172.844 29.8C168.924 29.8 165.044 33.16 165.044 38.32C165.044 42.84 168.224 44.98 171.764 44.98C172.904 44.98 174.284 44.58 175.204 44.1L175.984 46.04C174.584 46.78 173.104 47.12 171.464 47.12ZM171.324 39.82C171.784 39.82 172.184 39.58 172.764 38.82L173.304 35.78C173.084 35.38 172.724 35.16 172.264 35.16C170.944 35.16 170.144 37.02 170.144 38.36C170.144 39.32 170.584 39.82 171.324 39.82ZM186.584 45V33.08H182.564V30.1H194.204V33.08H190.164V45H186.584ZM197.777 45L195.077 30.1H198.717L199.657 36.9C199.857 38.46 200.057 40.02 200.257 41.62H200.337C200.617 40.02 200.917 38.44 201.217 36.9L202.737 30.1H205.757L207.297 36.9C207.597 38.42 207.857 40.02 208.157 41.62H208.257C208.437 40.02 208.637 38.44 208.817 36.9L209.797 30.1H213.177L210.597 45H206.097L204.757 38.52C204.517 37.38 204.317 36.18 204.177 35.06H204.097C203.897 36.18 203.717 37.38 203.497 38.52L202.197 45H197.777Z" fill="#144480"/>
<rect y="7.15802" width="40" height="40" rx="10" fill="#144480"/>
<g clip-path="url(#clip0_110_47)">
<path d="M24.1365 14.1617C22.0045 14.4081 20.7941 16.7455 20.64 18.7757C20.3882 20.5806 21.1761 22.8836 23.0718 23.2987C24.7146 23.4452 26.0217 21.9018 26.5585 20.4295C27.1926 18.5867 27.2111 16.1257 25.6726 14.7452C25.2453 14.3748 24.6966 14.1498 24.1365 14.1617ZM15.44 14.2583C13.6661 14.3867 12.7568 16.4482 12.8802 18.1031C12.8953 20.3157 14.1104 22.8043 16.3263 23.3296C17.9788 23.5083 19.0805 21.7557 19.1832 20.2233C19.3941 17.878 18.355 15.037 16.0019 14.3289C15.819 14.2784 15.6293 14.2534 15.44 14.2583ZM29.6944 21.3642C27.3143 21.5387 25.8092 24.0752 25.7057 26.3672C25.5805 27.8599 26.5449 29.7371 28.1686 29.6342C30.597 29.3768 32.0611 26.6703 32.0007 24.3187C31.9851 22.9649 31.1272 21.4207 29.6944 21.3642ZM8.01844 24.4583C7.79807 26.9981 9.57527 29.8687 12.157 30.0286C13.7217 29.9241 14.4596 28.1067 14.2802 26.6689C14.1373 24.5473 12.7188 22.3749 10.8758 22.091C9.03284 21.8072 7.98922 23.1093 8.01844 24.4583ZM20.2732 26.6249C17.8528 26.6305 15.6399 28.2131 14.4568 30.3544C13.4655 31.9545 12.6552 33.7661 12.501 35.6778C12.5347 37.1522 13.9415 38.3793 15.3521 38.0856C17.3641 37.8244 19.1621 36.4272 21.2543 36.689C22.9931 36.8278 24.4271 38.1761 26.1826 38.1565C27.8872 38.2205 28.8706 36.2671 28.2205 34.7371C27.521 32.5464 26.1648 30.6412 24.7091 28.9253C23.5479 27.6605 22.0271 26.5689 20.2732 26.6249Z" fill="#FAF7F7"/>
</g>
<defs>
<clipPath id="clip0_110_47">
<rect width="24" height="24" fill="white" transform="translate(8 14.158)"/>
</clipPath>
</defs>
</svg>
