<svg width="205" height="53" viewBox="0 0 205 53" fill="none" xmlns="http://www.w3.org/2000/svg">
<path d="M47.76 18.42V19.46H50.42V18.42H47.76ZM50.36 21.26V21.96H54.2V24.28H50.36V25.4C50.36 26.64 50.08 27.22 49.18 27.56C48.28 27.9 47.18 27.92 45.76 27.92C45.6 27.2 45.2 26.22 44.86 25.58C45.64 25.64 46.8 25.62 47.08 25.62C47.38 25.62 47.48 25.56 47.48 25.3V24.28H42.52C43.04 24.7 43.52 25.14 43.82 25.52L41.72 27.28C41.26 26.58 40.14 25.58 39.24 24.9L40 24.28H35.82V21.96H47.48V21.26H45.08V16.62H53.3V21.26H50.36ZM36.3 21.74L36.16 19.6C36.94 19.58 37.88 19.56 38.88 19.52V18.58H36.42V16.62H44.26V18.58H41.6V19.44L44.5 19.34L44.48 21.34C41.56 21.5 38.52 21.64 36.3 21.74ZM51.52 11.86H54.2V14.04H51.52V16.16H38.1V14.32H48.66V13.86H35.88V12.1H48.66V11.62H38.2V9.78H51.52V11.86ZM62.68 17.24L63.02 19.92C62.3 20.1 61.56 20.3 60.82 20.48V24.78C60.82 26.1 60.6 26.8 59.84 27.22C59.08 27.66 58.04 27.74 56.6 27.74C56.52 27 56.16 25.84 55.82 25.12C56.52 25.14 57.34 25.14 57.6 25.14C57.88 25.14 57.98 25.04 57.98 24.76V21.16L56.16 21.6L55.44 18.82C56.18 18.68 57.04 18.52 57.98 18.32V15.26H55.7V12.58H57.98V8.9H60.82V12.58H62.82V15.26H60.82V17.68C61.44 17.54 62.06 17.38 62.68 17.24ZM71.2 16.06L73.58 17.52C72.72 19.42 71.44 21.3 69.94 22.94C70.36 23.66 70.84 24.1 71.42 24.2C71.84 24.26 72.06 23.34 72.16 21.22C72.72 21.86 74.02 22.66 74.58 22.94C74 26.94 72.76 27.82 71.58 27.7C69.86 27.5 68.58 26.62 67.66 25.12C66.6 25.96 65.48 26.7 64.32 27.26C63.78 26.52 62.82 25.6 61.98 25.02C63.6 24.4 65.12 23.46 66.46 22.32C65.98 20.74 65.66 18.82 65.46 16.6L63.3 16.82L63.02 14.04L65.24 13.84C65.14 12.34 65.08 10.74 65.04 9.02H68.02C68.02 10.62 68.06 12.14 68.14 13.56L70.86 13.32C70.28 12.5 69.2 11.26 68.42 10.36L70.64 8.94C71.46 9.82 72.7 11.08 73.32 11.86L71.22 13.28L74.08 13.02L74.36 15.72L68.36 16.32C68.48 17.64 68.66 18.82 68.88 19.84C69.84 18.66 70.62 17.36 71.2 16.06ZM81.2 12.08L79.12 14.04C78.58 13.26 77.36 12.1 76.4 11.3L78.36 9.54C79.3 10.26 80.6 11.34 81.2 12.08ZM80.46 16.76L78.62 18.96C77.96 18.24 76.46 17.16 75.36 16.46L77.08 14.5C78.16 15.1 79.7 16.06 80.46 16.76ZM78.6 19.26L80.98 20.94C80.24 23.1 79.36 25.3 78.46 27.34L75.8 25.68C76.62 24.12 77.74 21.64 78.6 19.26ZM91.92 20.24H88.9C89.14 20.82 89.4 21.36 89.72 21.86C90.48 21.38 91.32 20.76 91.92 20.24ZM84.24 16.78V17.76H90.2V16.78H84.24ZM90.2 13.4H84.24V14.38H90.2V13.4ZM92.08 20.24L93.82 22.08C93.08 22.64 92.18 23.2 91.36 23.68C92.22 24.36 93.28 24.88 94.58 25.2C93.94 25.78 93.14 26.94 92.76 27.72C89.1 26.5 87.3 24 86.14 20.24H84.24V24.14L87.32 23.32C87.38 24.1 87.58 25.22 87.76 25.84C83.2 27.22 82.32 27.58 81.76 27.98C81.5 27.38 80.72 26.3 80.26 25.88C80.76 25.46 81.32 24.64 81.32 23.5V10.92H85.88C85.7 10.38 85.5 9.8 85.3 9.32L88 8.68C88.32 9.36 88.68 10.22 88.9 10.92H93.04V20.24H92.08ZM101.2 12.08L99.12 14.04C98.58 13.26 97.36 12.1 96.4 11.3L98.36 9.54C99.3 10.26 100.6 11.34 101.2 12.08ZM100.46 16.76L98.62 18.96C97.96 18.24 96.46 17.16 95.36 16.46L97.08 14.5C98.16 15.1 99.7 16.06 100.46 16.76ZM98.6 19.26L100.98 20.94C100.24 23.1 99.36 25.3 98.46 27.34L95.8 25.68C96.62 24.12 97.74 21.64 98.6 19.26ZM111.92 20.24H108.9C109.14 20.82 109.4 21.36 109.72 21.86C110.48 21.38 111.32 20.76 111.92 20.24ZM104.24 16.78V17.76H110.2V16.78H104.24ZM110.2 13.4H104.24V14.38H110.2V13.4ZM112.08 20.24L113.82 22.08C113.08 22.64 112.18 23.2 111.36 23.68C112.22 24.36 113.28 24.88 114.58 25.2C113.94 25.78 113.14 26.94 112.76 27.72C109.1 26.5 107.3 24 106.14 20.24H104.24V24.14L107.32 23.32C107.38 24.1 107.58 25.22 107.76 25.84C103.2 27.22 102.32 27.58 101.76 27.98C101.5 27.38 100.72 26.3 100.26 25.88C100.76 25.46 101.32 24.64 101.32 23.5V10.92H105.88C105.7 10.38 105.5 9.8 105.3 9.32L108 8.68C108.32 9.36 108.68 10.22 108.9 10.92H113.04V20.24H112.08ZM129.5 20.74V24.7H133.94V27.38H121.96V24.7H126.56V20.74H122.72V18.06H126.56V15.04H129.5V18.06H133.18V20.74H129.5ZM124.58 11.5H134.04V14.28H123.4C122.76 15.64 122 16.96 121.1 18.18V27.88H118.16V21.36C117.7 21.76 117.2 22.14 116.68 22.48C116.38 21.66 115.74 20.36 115.3 19.64C117.3 18.38 118.9 16.44 120.08 14.28H116.02V11.5H121.36C121.7 10.62 121.96 9.74 122.18 8.88L125.22 9.6C125.02 10.24 124.8 10.86 124.58 11.5ZM153.98 16.42L151.52 18.22C151.28 17.8 150.96 17.3 150.58 16.8C140.38 17.24 138.8 17.28 137.6 17.68C137.46 17.12 136.98 15.68 136.64 14.9C137.24 14.76 137.68 14.4 138.34 13.78C139.02 13.16 141.12 10.78 142.38 8.42L145.32 9.68C144.18 11.34 142.78 12.98 141.36 14.38L148.46 14.2C147.78 13.42 147.1 12.68 146.46 12.02L148.72 10.5C150.48 12.24 152.9 14.72 153.98 16.42ZM148.84 21.6H141V24.1H148.84V21.6ZM138.02 27.88V18.82H151.98V27.88H148.84V26.9H141V27.88H138.02ZM169.16 12.34L169.24 12.32H164.52V10.88H166.28C166.16 10.46 165.96 9.94 165.78 9.54L167.62 9.18C167.86 9.64 168.14 10.32 168.28 10.72L167.58 10.88H169.3V12.3C169.48 12.2 169.64 12.02 169.82 11.76C170.04 11.48 170.72 10.26 171.02 9.16L172.52 9.7C172.24 10.38 171.78 11.14 171.3 11.82L171.98 11.78C172.14 11.5 172.3 11.2 172.42 10.9L173.84 11.54C173.34 12.46 172.64 13.46 171.86 14.32L172.66 14.24L172.48 13.82L173.56 13.42C173.92 14.1 174.3 15.02 174.4 15.58L173.26 16.06C173.22 15.9 173.18 15.7 173.1 15.48C170.7 15.82 170.16 15.94 169.8 16.08C169.74 15.86 169.46 15.3 169.26 15C169.62 14.94 169.88 14.68 170.24 14.28C170.42 14.1 170.74 13.7 171.12 13.16C170.24 13.24 169.9 13.32 169.68 13.4C169.6 13.18 169.34 12.64 169.16 12.34ZM158.4 27.68L155.8 26.24C156.54 24.66 157.54 22.16 158.32 19.76L160.62 21.24C159.96 23.4 159.2 25.66 158.4 27.68ZM172.52 18.94L171.28 19.34C171.28 18.72 171.14 17.7 170.94 16.92L172.12 16.6C172.34 17.36 172.52 18.32 172.52 18.94ZM163 18.7L161.76 19.1C161.74 18.5 161.62 17.58 161.44 16.86L162.62 16.54C162.82 17.24 162.98 18.12 163 18.7ZM172.58 16.6L173.66 16.18C173.94 16.92 174.22 17.92 174.3 18.56L173.16 19.08C173.1 18.42 172.86 17.38 172.58 16.6ZM164.64 18.14L163.5 18.64C163.44 18.08 163.26 17.22 163.04 16.56L164.1 16.16C164.36 16.78 164.58 17.6 164.64 18.14ZM159.9 16.2L158.22 18.42C157.64 17.82 156.32 16.94 155.32 16.4L156.9 14.38C157.9 14.84 159.24 15.6 159.9 16.2ZM160.32 11.12L158.58 13.3C158.02 12.64 156.72 11.72 155.72 11.12L157.36 9.16C158.36 9.66 159.68 10.48 160.32 11.12ZM166.7 17.2V17.82H167.26V17.2H166.7ZM165.08 19.02V16H168.96V19.02H165.08ZM168.96 14.32V15.56H165.08V14.32H168.96ZM168.96 12.72V13.96H165.08V12.72H168.96ZM164.84 15.54L163.7 16.04C163.66 15.86 163.6 15.66 163.54 15.44C161.12 15.76 160.58 15.9 160.22 16.04C160.16 15.82 159.88 15.26 159.7 14.96C160.04 14.9 160.3 14.64 160.66 14.24C160.84 14.06 161.18 13.66 161.54 13.12C160.68 13.2 160.32 13.28 160.1 13.36C160.02 13.14 159.76 12.6 159.58 12.3C159.84 12.26 160.02 12.04 160.24 11.72C160.48 11.44 161.14 10.22 161.44 9.12L162.94 9.66C162.66 10.34 162.2 11.1 161.72 11.78L162.42 11.74C162.58 11.46 162.72 11.16 162.86 10.86L164.26 11.5C163.76 12.42 163.06 13.42 162.28 14.28L163.08 14.2L162.9 13.78L164 13.38C164.36 14.06 164.74 14.98 164.84 15.54ZM160.02 16.52L161.32 16.86C161.18 17.82 160.9 18.84 160.54 19.5C160.28 19.24 159.74 18.86 159.42 18.66C159.76 18.06 159.92 17.28 160.02 16.52ZM169.6 16.46L170.9 16.82C170.76 17.76 170.48 18.78 170.12 19.44C169.86 19.18 169.32 18.8 169 18.6C169.34 18 169.5 17.22 169.6 16.46ZM163.98 23.4H173.8C173.8 23.4 173.76 24.06 173.66 24.38C173.4 25.94 173.06 26.82 172.52 27.28C171.96 27.72 171.32 27.84 170.46 27.88C169.76 27.9 168.54 27.9 167.28 27.86C167.24 27.24 166.94 26.36 166.54 25.78C167.68 25.88 169 25.9 169.52 25.9C169.92 25.9 170.16 25.88 170.38 25.74C170.52 25.64 170.66 25.44 170.78 25.1H160.84C161.18 24.06 161.52 22.62 161.76 21.4H170.1V21H161.24V19.44H172.78V22.96H164.08L163.98 23.4Z" fill="#144480"/>
<g clip-path="url(#clip0_412_17)">
<path d="M26.5805 8.67911C24.6109 7.82651 22.3939 9.24551 21.2454 10.9267C20.1249 12.3639 19.6557 14.7523 21.09 16.0596C22.4394 17.0079 24.343 16.3248 25.5441 15.3182C27.0146 14.0393 28.2611 11.9173 27.6191 9.95248C27.4342 9.41807 27.0714 8.94888 26.5805 8.67911ZM19.0008 4.41457C17.4004 3.63872 15.5821 4.96948 14.8616 6.4643C13.7683 8.38807 13.5763 11.1508 15.2327 12.7136C16.5744 13.6946 18.4049 12.7277 19.26 11.4519C20.6153 9.52634 21.1359 6.54641 19.4521 4.75665C19.319 4.62146 19.1672 4.50491 19.0008 4.41457ZM27.7925 17.6956C25.644 16.6567 23.0723 18.1008 21.8367 20.034C20.9819 21.2641 20.8785 23.372 22.3361 24.0948C24.5679 25.086 27.1891 23.4741 28.3126 21.4074C28.976 20.2272 29.0051 18.4609 27.7925 17.6956ZM7.4735 9.53723C6.01279 11.6265 6.11659 15.0011 8.27245 16.4305C9.67983 17.1223 11.2275 15.9174 11.7911 14.5825C12.7281 12.6738 12.5859 10.0831 11.1317 8.91578C9.67756 7.7485 8.12273 8.35429 7.4735 9.53723ZM17.0032 17.5409C14.9042 16.3356 12.1965 16.5997 10.1012 17.8625C8.44271 18.7527 6.83515 19.9163 5.7458 21.4949C5.03782 22.7886 5.64256 24.5546 7.01101 25.0056C8.88406 25.7854 11.1398 25.4743 12.8208 26.7472C14.2572 27.7368 14.8249 29.6215 16.3551 30.4823C17.7993 31.39 19.6276 30.19 19.8296 28.5399C20.3191 26.293 20.0972 23.9649 19.6946 21.7511C19.3214 20.0751 18.55 18.3693 17.0032 17.5409Z" fill="#144480"/>
</g>
<path d="M29.819 48.42C29.819 48.5933 29.4123 48.7333 28.599 48.84C27.7857 48.9467 26.9723 49 26.159 49C25.3457 49 24.8257 48.9533 24.599 48.86C24.3723 48.7667 24.259 48.62 24.259 48.42V35.56C24.259 34.92 26.179 34.6 30.019 34.6C32.339 34.6 33.8723 34.76 34.619 35.08C35.5257 35.4533 36.139 35.96 36.459 36.6C36.8857 37.4267 37.099 38.4867 37.099 39.78C37.099 41.5533 36.7923 42.84 36.179 43.64C35.739 44.2267 35.299 44.6067 34.859 44.78C34.419 44.9533 34.0523 45.08 33.759 45.16C33.479 45.2267 33.1257 45.28 32.699 45.32C32.1123 45.3733 31.3123 45.4 30.299 45.4L29.819 45.38V48.42ZM29.839 42.06H30.319C30.5723 42.06 30.7723 42.0267 30.919 41.96C31.0657 41.88 31.1923 41.68 31.299 41.36C31.419 41.0267 31.479 40.5667 31.479 39.98C31.479 39.38 31.4123 38.9267 31.279 38.62C31.159 38.3 31.0323 38.1133 30.899 38.06C30.779 37.9933 30.6323 37.96 30.459 37.96H29.839V42.06ZM43.5596 44.48C43.5596 45.3467 43.9729 45.78 44.7996 45.78C45.2796 45.78 45.9063 45.62 46.6796 45.3C47.4529 44.9667 47.8596 44.8 47.8996 44.8C48.1529 44.8 48.4863 45.18 48.8996 45.94C49.3129 46.7 49.5196 47.26 49.5196 47.62C49.5196 48.14 48.9863 48.5333 47.9196 48.8C46.8529 49.0667 45.8063 49.2 44.7796 49.2C43.7663 49.2 42.9129 49.12 42.2196 48.96C41.5396 48.8 40.9796 48.6 40.5396 48.36C40.1129 48.1067 39.7329 47.8 39.3996 47.44C39.0796 47.08 38.8396 46.74 38.6796 46.42C38.5196 46.0867 38.3929 45.72 38.2996 45.32C38.1663 44.7333 38.0996 44.1267 38.0996 43.5C38.0996 41.0733 38.7329 39.4 39.9996 38.48C40.6263 38.0133 41.3263 37.6867 42.0996 37.5C42.8729 37.3133 43.7863 37.22 44.8396 37.22C48.2129 37.22 49.8996 38.3933 49.8996 40.74C49.8996 43.2333 48.0063 44.48 44.2196 44.48H43.5596ZM43.5196 41.56V42.88C43.9063 42.88 44.2196 42.7267 44.4596 42.42C44.7129 42.1133 44.8396 41.74 44.8396 41.3C44.8396 40.5 44.6329 40.1 44.2196 40.1C43.7529 40.1 43.5196 40.5867 43.5196 41.56ZM58.9526 48.82C58.7126 49.0467 58.1659 49.16 57.3126 49.16C56.4592 49.16 55.7526 49.1067 55.1926 49C54.6326 48.88 54.0992 48.6533 53.5926 48.32C52.6192 47.6667 52.1326 46.3067 52.1326 44.24V41.12H51.1326C50.9859 41.12 50.8592 40.9667 50.7526 40.66C50.6459 40.3533 50.5926 39.9333 50.5926 39.4C50.5926 38.8667 50.6726 38.4 50.8326 38C51.0059 37.5867 51.2259 37.38 51.4926 37.38H52.1326V34.96C52.1326 34.5467 52.5326 34.2133 53.3326 33.96C54.1459 33.7067 54.9392 33.58 55.7126 33.58C56.9259 33.58 57.5326 33.88 57.5326 34.48V37.38H59.0126C59.3592 37.38 59.5326 37.88 59.5326 38.88C59.5326 39.5333 59.4526 40.0733 59.2926 40.5C59.1459 40.9133 58.9526 41.12 58.7126 41.12H57.5326V44.78C57.5326 45.14 57.6859 45.4 57.9926 45.56C58.2992 45.7067 58.5659 45.78 58.7926 45.78C59.0326 45.78 59.1792 45.8933 59.2326 46.12C59.2859 46.3467 59.3126 46.6867 59.3126 47.14C59.3126 48.0333 59.1926 48.5933 58.9526 48.82ZM70.9132 48.42C70.9132 48.62 70.4799 48.7667 69.6132 48.86C68.7599 48.9533 67.9465 49 67.1732 49C66.3999 49 65.8999 48.9533 65.6732 48.86C65.4465 48.7667 65.3332 48.62 65.3332 48.42V35.74C65.3332 35.3933 65.5065 35.1467 65.8532 35C66.1999 34.8533 66.8532 34.78 67.8132 34.78H75.2332C75.5132 34.78 75.6532 35.2867 75.6532 36.3C75.6532 37.3 75.5865 38.0667 75.4532 38.6C75.3332 39.12 75.1732 39.38 74.9732 39.38L70.9132 39.18V40.54C72.6865 40.46 73.8732 40.42 74.4732 40.42C74.6732 40.42 74.8065 40.5267 74.8732 40.74C74.9532 40.9533 74.9932 41.3667 74.9932 41.98C74.9932 42.58 74.9265 43.16 74.7932 43.72C74.6599 44.2667 74.4732 44.54 74.2332 44.54L70.9132 44.42V48.42ZM82.452 38.66V48.52C82.452 48.6667 82.0653 48.7867 81.292 48.88C80.532 48.96 79.7453 49 78.932 49C78.132 49 77.612 48.9667 77.372 48.9C77.1453 48.82 77.032 48.6933 77.032 48.52V39.02C77.032 38.7267 77.4053 38.44 78.152 38.16C78.912 37.8667 79.7386 37.72 80.632 37.72C81.8453 37.72 82.452 38.0333 82.452 38.66ZM79.732 33.4C80.612 33.4 81.2986 33.5333 81.792 33.8C82.2986 34.0533 82.552 34.52 82.552 35.2C82.552 36.4 81.6186 37 79.752 37C77.8853 37 76.952 36.4 76.952 35.2C76.952 34 77.8786 33.4 79.732 33.4ZM96.0041 42.36V48.52C96.0041 48.6667 95.6241 48.7867 94.8641 48.88C94.1041 48.96 93.3175 49 92.5041 49C91.7041 49 91.1841 48.9667 90.9441 48.9C90.7175 48.82 90.6041 48.6933 90.6041 48.52V42.16C90.6041 41.56 90.5775 41.1667 90.5241 40.98C90.4841 40.7933 90.4441 40.6267 90.4041 40.48C90.3108 40.2267 90.1441 40.1 89.9041 40.1C89.5308 40.1 89.3441 40.28 89.3441 40.64V48.52C89.3441 48.6667 88.9641 48.7867 88.2041 48.88C87.4575 48.96 86.6775 49 85.8641 49C85.0641 49 84.5441 48.9667 84.3041 48.9C84.0641 48.82 83.9441 48.6933 83.9441 48.52V38.66C83.9441 38.38 84.3241 38.1 85.0841 37.82C85.8575 37.54 86.6708 37.4 87.5241 37.4C88.3775 37.4 88.8575 37.6467 88.9641 38.14L89.1441 39.02H89.2841C89.6708 38.2467 90.3375 37.7067 91.2841 37.4C91.6708 37.28 92.0975 37.22 92.5641 37.22C93.9108 37.22 94.8175 37.6267 95.2841 38.44C95.7641 39.24 96.0041 40.5467 96.0041 42.36ZM101.161 49.18C100.668 49.18 100.208 49.1067 99.7812 48.96C99.3545 48.8133 99.0012 48.6333 98.7212 48.42C98.4545 48.2067 98.2212 47.92 98.0212 47.56C97.8212 47.2 97.6678 46.86 97.5612 46.54C97.4545 46.2067 97.3745 45.8 97.3212 45.32C97.2412 44.6133 97.2012 43.8067 97.2012 42.9C97.2012 41.0467 97.5412 39.64 98.2212 38.68C98.9012 37.7067 99.8345 37.22 101.021 37.22C102.235 37.22 103.115 37.5067 103.661 38.08C103.781 38.2133 103.875 38.3733 103.941 38.56H104.101L103.861 37.18V34.68C103.861 34.3867 104.235 34.1 104.981 33.82C105.728 33.54 106.535 33.4 107.401 33.4C108.308 33.4 108.888 33.5733 109.141 33.92C109.235 34.0533 109.281 34.1867 109.281 34.32V48.52C109.281 48.6667 108.908 48.7867 108.161 48.88C107.428 48.96 106.715 49 106.021 49C105.341 49 104.901 48.98 104.701 48.94C104.515 48.8867 104.395 48.8333 104.341 48.78C104.301 48.7267 104.275 48.64 104.261 48.52L104.101 47.38H103.941C103.821 47.8467 103.581 48.24 103.221 48.56C102.768 48.9733 102.081 49.18 101.161 49.18ZM103.401 46.26C103.615 46.26 103.775 46.1267 103.881 45.86V40.52C103.881 40.3867 103.808 40.2867 103.661 40.22C103.528 40.14 103.408 40.1 103.301 40.1C102.848 40.1 102.621 41.14 102.621 43.22C102.621 44.3267 102.681 45.1133 102.801 45.58C102.935 46.0333 103.135 46.26 103.401 46.26ZM115.942 44.48C115.942 45.3467 116.356 45.78 117.182 45.78C117.662 45.78 118.289 45.62 119.062 45.3C119.836 44.9667 120.242 44.8 120.282 44.8C120.536 44.8 120.869 45.18 121.282 45.94C121.696 46.7 121.902 47.26 121.902 47.62C121.902 48.14 121.369 48.5333 120.302 48.8C119.236 49.0667 118.189 49.2 117.162 49.2C116.149 49.2 115.296 49.12 114.602 48.96C113.922 48.8 113.362 48.6 112.922 48.36C112.496 48.1067 112.116 47.8 111.782 47.44C111.462 47.08 111.222 46.74 111.062 46.42C110.902 46.0867 110.776 45.72 110.682 45.32C110.549 44.7333 110.482 44.1267 110.482 43.5C110.482 41.0733 111.116 39.4 112.382 38.48C113.009 38.0133 113.709 37.6867 114.482 37.5C115.256 37.3133 116.169 37.22 117.222 37.22C120.596 37.22 122.282 38.3933 122.282 40.74C122.282 43.2333 120.389 44.48 116.602 44.48H115.942ZM115.902 41.56V42.88C116.289 42.88 116.602 42.7267 116.842 42.42C117.096 42.1133 117.222 41.74 117.222 41.3C117.222 40.5 117.016 40.1 116.602 40.1C116.136 40.1 115.902 40.5867 115.902 41.56ZM128.875 42.68V48.52C128.875 48.6667 128.495 48.7867 127.735 48.88C126.989 48.96 126.209 49 125.395 49C124.595 49 124.075 48.9667 123.835 48.9C123.595 48.82 123.475 48.6933 123.475 48.52V38.66C123.475 38.4067 123.842 38.1333 124.575 37.84C125.322 37.5467 126.129 37.4 126.995 37.4C127.875 37.4 128.369 37.64 128.475 38.12L128.675 39.04H128.815C129.002 38.5333 129.449 38.1067 130.155 37.76C130.862 37.4 131.569 37.22 132.275 37.22C132.982 37.22 133.475 37.3333 133.755 37.56C134.049 37.7867 134.195 38.08 134.195 38.44C134.195 38.7867 134.169 39.2333 134.115 39.78C134.062 40.3267 133.929 40.92 133.715 41.56C133.515 42.2 133.249 42.52 132.915 42.52C132.782 42.52 132.362 42.42 131.655 42.22C130.949 42.02 130.362 41.92 129.895 41.92C129.442 41.92 129.155 41.9867 129.035 42.12C128.929 42.2533 128.875 42.44 128.875 42.68ZM147.606 44.3H147.526C147.326 45.0067 146.793 45.36 145.926 45.36C144.153 45.36 143.266 44.6667 143.266 43.28C143.266 42.84 143.386 42.4667 143.626 42.16C143.88 41.8533 144.2 41.6267 144.586 41.48C145.253 41.2533 145.953 41.14 146.686 41.14H147.066C147.066 40.9533 147.006 40.78 146.886 40.62C146.78 40.46 146.586 40.38 146.306 40.38C146.04 40.38 145.693 40.4733 145.266 40.66C144.853 40.8467 144.633 40.94 144.606 40.94C144.473 40.94 144.286 40.7333 144.046 40.32C143.806 39.8933 143.686 39.5267 143.686 39.22C143.686 38.9533 144.146 38.7333 145.066 38.56C145.586 38.4533 146.18 38.4 146.846 38.4C147.526 38.4 148.086 38.48 148.526 38.64C148.966 38.7867 149.293 38.96 149.506 39.16C149.72 39.36 149.886 39.6267 150.006 39.96C150.126 40.28 150.193 40.54 150.206 40.74C150.22 40.9267 150.226 41.1667 150.226 41.46V43.66H150.866C151.253 43.66 151.506 43.5 151.626 43.18C151.76 42.8467 151.826 42.32 151.826 41.6C151.826 40.88 151.76 40.2467 151.626 39.7C151.506 39.1533 151.28 38.64 150.946 38.16C150.293 37.2133 148.94 36.74 146.886 36.74C144.82 36.74 143.46 37.2 142.806 38.12C142.473 38.6 142.246 39.1133 142.126 39.66C142.02 40.2067 141.966 40.86 141.966 41.62C141.966 42.3667 141.986 42.9467 142.026 43.36C142.066 43.7733 142.173 44.24 142.346 44.76C142.533 45.28 142.793 45.6867 143.126 45.98C143.46 46.2733 143.946 46.5267 144.586 46.74C145.226 46.94 146 47.04 146.906 47.04C147.053 47.04 147.193 47.2067 147.326 47.54C147.46 47.86 147.526 48.1667 147.526 48.46C147.526 48.9533 147.32 49.2 146.906 49.2C145.026 49.2 143.6 48.92 142.626 48.36C141.72 47.8533 141.04 47.12 140.586 46.16C140.053 45.04 139.786 43.5933 139.786 41.82C139.786 40.5533 139.926 39.4667 140.206 38.56C140.5 37.64 140.86 36.9333 141.286 36.44C141.713 35.9333 142.26 35.54 142.926 35.26C143.606 34.9667 144.24 34.7867 144.826 34.72C145.426 34.64 146.126 34.6 146.926 34.6C149.286 34.6 151.04 35.16 152.186 36.28C153.333 37.3867 153.906 38.9333 153.906 40.92C153.906 43.08 153.346 44.4133 152.226 44.92C151.853 45.0933 151.52 45.2 151.226 45.24C150.946 45.2667 150.593 45.28 150.166 45.28C148.46 45.28 147.606 44.9533 147.606 44.3ZM147.086 43.42V42.06C146.886 42.06 146.72 42.1467 146.586 42.32C146.466 42.4933 146.406 42.6867 146.406 42.9C146.406 43.4067 146.52 43.66 146.746 43.66C146.973 43.66 147.086 43.58 147.086 43.42ZM168.501 48.52C168.501 48.6667 168.088 48.7867 167.261 48.88C166.448 48.96 165.628 49 164.801 49C163.988 49 163.468 48.9667 163.241 48.9C163.028 48.82 162.921 48.6933 162.921 48.52V39.92H160.141C159.995 39.92 159.868 39.7333 159.761 39.36C159.655 38.9867 159.601 38.4333 159.601 37.7C159.601 36.9533 159.681 36.2867 159.841 35.7C160.001 35.1 160.215 34.8 160.481 34.8H171.301C171.501 34.8 171.635 34.9867 171.701 35.36C171.781 35.7333 171.821 36.2733 171.821 36.98C171.821 37.6867 171.748 38.3533 171.601 38.98C171.455 39.6067 171.255 39.92 171.001 39.92H168.501V48.52ZM178.529 49C177.889 49 177.469 48.9533 177.269 48.86C177.069 48.7667 176.929 48.6067 176.849 48.38L172.429 36.18C172.429 35.9267 172.902 35.6333 173.849 35.3C174.809 34.9667 175.775 34.8 176.749 34.8C178.002 34.8 178.669 35.1933 178.749 35.98L179.429 42.32H179.709L180.269 35.98C180.335 35.1933 181.235 34.8 182.969 34.8C183.635 34.8 184.082 34.8933 184.309 35.08C184.535 35.2533 184.662 35.4867 184.689 35.78L185.349 42.32H185.629L186.149 35.98C186.189 35.5933 186.642 35.3 187.509 35.1C188.389 34.9 189.255 34.8 190.109 34.8C190.975 34.8 191.562 34.9267 191.869 35.18C192.189 35.4333 192.349 35.7 192.349 35.98L188.069 48.38C187.922 48.7933 186.935 49 185.109 49C184.562 49 184.195 48.9533 184.009 48.86C183.822 48.7667 183.695 48.6067 183.629 48.38L182.589 44.9H182.349L181.289 48.38C181.169 48.7933 180.249 49 178.529 49Z" fill="#144480"/>
<path d="M188.75 12.5C192.202 12.5 195 15.2982 195 18.75M195.824 25.8186L201.25 31.25M198.75 18.75C198.75 24.2729 194.273 28.75 188.75 28.75C183.227 28.75 178.75 24.2729 178.75 18.75C178.75 13.2271 183.227 8.75 188.75 8.75C194.273 8.75 198.75 13.2271 198.75 18.75Z" stroke="#144480" stroke-width="3" stroke-linecap="round" stroke-linejoin="round"/>
<defs>
<clipPath id="clip0_412_17">
<rect width="24" height="24" fill="white" transform="translate(12.6077 0.607666) rotate(30)"/>
</clipPath>
</defs>
</svg>
