<svg width="198" height="53" viewBox="0 0 198 53" fill="none" xmlns="http://www.w3.org/2000/svg">
<path d="M64.484 14.678V15.614H66.878V14.678H64.484ZM66.824 17.234V17.864H70.28V19.952H66.824V20.96C66.824 22.076 66.572 22.598 65.762 22.904C64.952 23.21 63.962 23.228 62.684 23.228C62.54 22.58 62.18 21.698 61.874 21.122C62.576 21.176 63.62 21.158 63.872 21.158C64.142 21.158 64.232 21.104 64.232 20.87V19.952H59.768C60.236 20.33 60.668 20.726 60.938 21.068L59.048 22.652C58.634 22.022 57.626 21.122 56.816 20.51L57.5 19.952H53.738V17.864H64.232V17.234H62.072V13.058H69.47V17.234H66.824ZM54.17 17.666L54.044 15.74C54.746 15.722 55.592 15.704 56.492 15.668V14.822H54.278V13.058H61.334V14.822H58.94V15.596L61.55 15.506L61.532 17.306C58.904 17.45 56.168 17.576 54.17 17.666ZM67.868 8.774H70.28V10.736H67.868V12.644H55.79V10.988H65.294V10.574H53.792V8.99H65.294V8.558H55.88V6.902H67.868V8.774ZM77.912 13.616L78.218 16.028C77.57 16.19 76.904 16.37 76.238 16.532V20.402C76.238 21.59 76.04 22.22 75.356 22.598C74.672 22.994 73.736 23.066 72.44 23.066C72.368 22.4 72.044 21.356 71.738 20.708C72.368 20.726 73.106 20.726 73.34 20.726C73.592 20.726 73.682 20.636 73.682 20.384V17.144L72.044 17.54L71.396 15.038C72.062 14.912 72.836 14.768 73.682 14.588V11.834H71.63V9.422H73.682V6.11H76.238V9.422H78.038V11.834H76.238V14.012C76.796 13.886 77.354 13.742 77.912 13.616ZM85.58 12.554L87.722 13.868C86.948 15.578 85.796 17.27 84.446 18.746C84.824 19.394 85.256 19.79 85.778 19.88C86.156 19.934 86.354 19.106 86.444 17.198C86.948 17.774 88.118 18.494 88.622 18.746C88.1 22.346 86.984 23.138 85.922 23.03C84.374 22.85 83.222 22.058 82.394 20.708C81.44 21.464 80.432 22.13 79.388 22.634C78.902 21.968 78.038 21.14 77.282 20.618C78.74 20.06 80.108 19.214 81.314 18.188C80.882 16.766 80.594 15.038 80.414 13.04L78.47 13.238L78.218 10.736L80.216 10.556C80.126 9.206 80.072 7.766 80.036 6.218H82.718C82.718 7.658 82.754 9.026 82.826 10.304L85.274 10.088C84.752 9.35 83.78 8.234 83.078 7.424L85.076 6.146C85.814 6.938 86.93 8.072 87.488 8.774L85.598 10.052L88.172 9.818L88.424 12.248L83.024 12.788C83.132 13.976 83.294 15.038 83.492 15.956C84.356 14.894 85.058 13.724 85.58 12.554ZM94.58 8.972L92.708 10.736C92.222 10.034 91.124 8.99 90.26 8.27L92.024 6.686C92.87 7.334 94.04 8.306 94.58 8.972ZM93.914 13.184L92.258 15.164C91.664 14.516 90.314 13.544 89.324 12.914L90.872 11.15C91.844 11.69 93.23 12.554 93.914 13.184ZM92.24 15.434L94.382 16.946C93.716 18.89 92.924 20.87 92.114 22.706L89.72 21.212C90.458 19.808 91.466 17.576 92.24 15.434ZM104.228 16.316H101.51C101.726 16.838 101.96 17.324 102.248 17.774C102.932 17.342 103.688 16.784 104.228 16.316ZM97.316 13.202V14.084H102.68V13.202H97.316ZM102.68 10.16H97.316V11.042H102.68V10.16ZM104.372 16.316L105.938 17.972C105.272 18.476 104.462 18.98 103.724 19.412C104.498 20.024 105.452 20.492 106.622 20.78C106.046 21.302 105.326 22.346 104.984 23.048C101.69 21.95 100.07 19.7 99.026 16.316H97.316V19.826L100.088 19.088C100.142 19.79 100.322 20.798 100.484 21.356C96.38 22.598 95.588 22.922 95.084 23.282C94.85 22.742 94.148 21.77 93.734 21.392C94.184 21.014 94.688 20.276 94.688 19.25V7.928H98.792C98.63 7.442 98.45 6.92 98.27 6.488L100.7 5.912C100.988 6.524 101.312 7.298 101.51 7.928H105.236V16.316H104.372ZM112.58 8.972L110.708 10.736C110.222 10.034 109.124 8.99 108.26 8.27L110.024 6.686C110.87 7.334 112.04 8.306 112.58 8.972ZM111.914 13.184L110.258 15.164C109.664 14.516 108.314 13.544 107.324 12.914L108.872 11.15C109.844 11.69 111.23 12.554 111.914 13.184ZM110.24 15.434L112.382 16.946C111.716 18.89 110.924 20.87 110.114 22.706L107.72 21.212C108.458 19.808 109.466 17.576 110.24 15.434ZM122.228 16.316H119.51C119.726 16.838 119.96 17.324 120.248 17.774C120.932 17.342 121.688 16.784 122.228 16.316ZM115.316 13.202V14.084H120.68V13.202H115.316ZM120.68 10.16H115.316V11.042H120.68V10.16ZM122.372 16.316L123.938 17.972C123.272 18.476 122.462 18.98 121.724 19.412C122.498 20.024 123.452 20.492 124.622 20.78C124.046 21.302 123.326 22.346 122.984 23.048C119.69 21.95 118.07 19.7 117.026 16.316H115.316V19.826L118.088 19.088C118.142 19.79 118.322 20.798 118.484 21.356C114.38 22.598 113.588 22.922 113.084 23.282C112.85 22.742 112.148 21.77 111.734 21.392C112.184 21.014 112.688 20.276 112.688 19.25V7.928H116.792C116.63 7.442 116.45 6.92 116.27 6.488L118.7 5.912C118.988 6.524 119.312 7.298 119.51 7.928H123.236V16.316H122.372ZM54.548 47.5V34.09H59.264C62.198 34.09 64.628 35.152 64.628 38.464C64.628 41.65 62.18 43.054 59.336 43.054H57.77V47.5H54.548ZM57.77 40.516H59.174C60.74 40.516 61.496 39.778 61.496 38.464C61.496 37.114 60.632 36.646 59.084 36.646H57.77V40.516ZM70.858 47.752C67.906 47.752 65.638 45.772 65.638 42.37C65.638 39.058 68.032 37.006 70.498 37.006C73.45 37.006 74.89 39.148 74.89 41.938C74.89 42.514 74.818 43.072 74.746 43.324H68.734C69.022 44.728 69.994 45.304 71.29 45.304C72.028 45.304 72.712 45.088 73.45 44.656L74.512 46.582C73.45 47.338 72.046 47.752 70.858 47.752ZM68.68 41.218H72.172C72.172 40.21 71.722 39.454 70.552 39.454C69.67 39.454 68.896 40.012 68.68 41.218ZM80.7577 47.752C78.1837 47.752 77.1397 46.114 77.1397 43.702V39.76H75.7537V37.384L77.3377 37.258L77.6977 34.54H80.3437V37.258H82.7557V39.76H80.3437V43.666C80.3437 44.8 80.8837 45.25 81.6397 45.25C81.9637 45.25 82.3237 45.142 82.5757 45.052L83.0797 47.374C82.5397 47.536 81.8017 47.752 80.7577 47.752ZM89.1066 47.5V34.09H97.6566V36.772H92.3286V39.706H96.9006V42.388H92.3286V47.5H89.1066ZM99.7179 47.5V37.258H102.922V47.5H99.7179ZM101.32 35.836C100.24 35.836 99.5379 35.188 99.5379 34.18C99.5379 33.19 100.24 32.542 101.32 32.542C102.382 32.542 103.102 33.19 103.102 34.18C103.102 35.188 102.382 35.836 101.32 35.836ZM105.501 47.5V37.258H108.111L108.345 38.536H108.399C109.245 37.708 110.289 37.006 111.675 37.006C113.907 37.006 114.861 38.608 114.861 41.164V47.5H111.657V41.56C111.657 40.138 111.279 39.742 110.469 39.742C109.749 39.742 109.317 40.066 108.705 40.66V47.5H105.501ZM121.021 47.752C118.465 47.752 116.827 45.718 116.827 42.37C116.827 39.022 118.933 37.006 121.057 37.006C122.191 37.006 122.857 37.42 123.523 38.068L123.415 36.538V33.118H126.619V47.5H124.009L123.775 46.51H123.703C122.983 47.23 121.993 47.752 121.021 47.752ZM121.867 45.124C122.479 45.124 122.965 44.926 123.415 44.26V40.228C122.929 39.778 122.353 39.616 121.813 39.616C120.931 39.616 120.121 40.444 120.121 42.334C120.121 44.296 120.769 45.124 121.867 45.124ZM133.84 47.752C130.888 47.752 128.62 45.772 128.62 42.37C128.62 39.058 131.014 37.006 133.48 37.006C136.432 37.006 137.872 39.148 137.872 41.938C137.872 42.514 137.8 43.072 137.728 43.324H131.716C132.004 44.728 132.976 45.304 134.272 45.304C135.01 45.304 135.694 45.088 136.432 44.656L137.494 46.582C136.432 47.338 135.028 47.752 133.84 47.752ZM131.662 41.218H135.154C135.154 40.21 134.704 39.454 133.534 39.454C132.652 39.454 131.878 40.012 131.662 41.218ZM139.919 47.5V37.258H142.529L142.763 39.04H142.817C143.573 37.672 144.707 37.006 145.733 37.006C146.345 37.006 146.687 37.096 146.975 37.222L146.453 39.976C146.075 39.886 145.769 39.814 145.319 39.814C144.563 39.814 143.645 40.3 143.123 41.65V47.5H139.919ZM159.618 49.408C155.46 49.408 151.68 46.906 151.68 41.542C151.68 35.746 155.964 31.894 161.13 31.894C165.63 31.894 168.51 34.972 168.51 39.346C168.51 43.144 165.918 45.034 163.74 45.034C162.534 45.034 161.544 44.476 161.31 43.468H161.274C160.716 44.296 159.636 44.854 158.79 44.854C157.152 44.854 156.036 43.612 156.036 41.704C156.036 39.148 157.872 36.592 160.23 36.592C160.914 36.592 161.454 36.898 161.778 37.636H161.832L162.138 36.754H164.1L163.146 41.38C162.858 42.532 163.164 43.072 164.064 43.072C165.324 43.072 166.512 41.65 166.512 39.418C166.512 36.484 164.946 33.82 160.86 33.82C157.332 33.82 153.84 36.844 153.84 41.488C153.84 45.556 156.702 47.482 159.888 47.482C160.914 47.482 162.156 47.122 162.984 46.69L163.686 48.436C162.426 49.102 161.094 49.408 159.618 49.408ZM159.492 42.838C159.906 42.838 160.266 42.622 160.788 41.938L161.274 39.202C161.076 38.842 160.752 38.644 160.338 38.644C159.15 38.644 158.43 40.318 158.43 41.524C158.43 42.388 158.826 42.838 159.492 42.838ZM173.226 47.5V36.772H169.608V34.09H180.084V36.772H176.448V47.5H173.226ZM183.3 47.5L180.87 34.09H184.146L184.992 40.21C185.172 41.614 185.352 43.018 185.532 44.458H185.604C185.856 43.018 186.126 41.596 186.396 40.21L187.764 34.09H190.482L191.868 40.21C192.138 41.578 192.372 43.018 192.642 44.458H192.732C192.894 43.018 193.074 41.596 193.236 40.21L194.118 34.09H197.16L194.838 47.5H190.788L189.582 41.668C189.366 40.642 189.186 39.562 189.06 38.554H188.988C188.808 39.562 188.646 40.642 188.448 41.668L187.278 47.5H183.3Z" fill="#144480"/>
<rect y="7.65802" width="40" height="40" rx="10" fill="#144480"/>
<g clip-path="url(#clip0_110_47)">
<path d="M24.1364 14.6617C22.0044 14.9081 20.7939 17.2454 20.6399 19.2757C20.3881 21.0805 21.176 23.3836 23.0717 23.7986C24.7145 23.9452 26.0215 22.4017 26.5584 20.9295C27.1925 19.0867 27.211 16.6257 25.6725 15.2451C25.2452 14.8748 24.6965 14.6498 24.1364 14.6617ZM15.4399 14.7583C13.666 14.8866 12.7567 16.9482 12.8801 18.603C12.8952 20.8157 14.1103 23.3043 16.3261 23.8296C17.9786 24.0083 19.0804 22.2557 19.1831 20.7232C19.394 18.378 18.3549 15.537 16.0018 14.8289C15.8189 14.7784 15.6292 14.7533 15.4399 14.7583ZM29.6942 21.8642C27.3142 22.0386 25.8091 24.5751 25.7056 26.8672C25.5804 28.3599 26.5447 30.2371 28.1685 30.1342C30.5969 29.8768 32.061 27.1702 32.0006 24.8187C31.985 23.4648 31.1271 21.9206 29.6942 21.8642ZM8.01832 24.9583C7.79794 27.498 9.57514 30.3686 12.1568 30.5285C13.7216 30.424 14.4594 28.6067 14.2801 27.1688C14.1372 25.0473 12.7187 22.8748 10.8757 22.591C9.03272 22.3072 7.9891 23.6092 8.01832 24.9583ZM20.2731 27.1249C17.8527 27.1305 15.6398 28.7131 14.4567 30.8543C13.4654 32.4545 12.655 34.266 12.5009 36.1778C12.5346 37.6522 13.9414 38.8792 15.352 38.5856C17.364 38.3244 19.1619 36.9271 21.2542 37.1889C22.993 37.3277 24.427 38.676 26.1825 38.6565C27.8871 38.7205 28.8704 36.7671 28.2204 35.2371C27.5209 33.0464 26.1646 31.1412 24.709 29.4253C23.5478 28.1604 22.0269 27.0689 20.2731 27.1249Z" fill="#FAF7F7"/>
</g>
<defs>
<clipPath id="clip0_110_47">
<rect width="24" height="24" fill="white" transform="translate(7.99988 14.658)"/>
</clipPath>
</defs>
</svg>
