<svg width="24" height="24" viewBox="0 0 24 24" fill="none" xmlns="http://www.w3.org/2000/svg">
<path d="M23.6392 8.92234C23.1414 8.59822 22.2465 6.70548 22.0473 6.48942C21.8482 6.2726 20.7038 5.78586 20.7038 5.78586L20.0572 3.569C18.813 3.73127 18.0674 5.89387 18.0175 6.05613C18.0175 6.05613 17.8928 9.81409 12.3705 8.35429C8.41248 7.30787 6.03202 6.29573 4.03271 8.33595C3.90765 8.10272 3.82219 7.86552 3.7598 7.60962C3.64833 7.14795 3.62302 6.61821 3.6234 6.01461C3.6234 5.71882 3.62851 5.40713 3.62888 5.08026C3.62851 4.39575 3.60577 3.64114 3.43923 2.83788C3.27423 2.03426 2.95951 1.18637 2.40676 0.341638C2.16835 -0.0235415 1.70251 -0.10964 1.36618 0.149878C1.03022 0.409396 0.950959 0.915645 1.18974 1.28082C1.62587 1.95051 1.85358 2.57322 1.98343 3.19389C2.11182 3.81375 2.13676 4.43682 2.13643 5.08026C2.13643 5.38716 2.1309 5.69854 2.1309 6.01461C2.13165 6.65887 2.15143 7.32896 2.31502 8.0178C2.44374 8.5647 2.67699 9.11721 3.04196 9.63308C1.49672 12.278 2.34549 15.0865 2.34549 15.0865L0.747381 17.8498C0.718412 17.8997 0.698959 17.9551 0.689068 18.0124L0.00684957 22.091C-0.0231973 22.2703 0.0472558 22.4517 0.185865 22.5538L2.10676 23.9682C2.14782 23.9988 2.19882 24.0076 2.24649 23.9933C2.29458 23.9793 2.33382 23.9426 2.35468 23.894L2.74496 22.9859C2.77393 22.9177 2.76221 22.8372 2.71524 22.7822L2.21237 22.199C2.11008 22.0806 2.07301 21.9119 2.11482 21.7557L2.95107 18.6463C2.97821 18.5471 3.03469 18.4606 3.11208 18.4008L4.23629 17.5317C4.38887 17.4129 4.59535 17.4185 4.74282 17.5445C4.89029 17.6704 4.94382 17.8869 4.87449 18.0763L4.3786 19.4308C4.32141 19.5863 4.34668 19.7633 4.44427 19.8924L7.27074 23.63H9.39034C9.4839 23.63 9.55984 23.5475 9.55984 23.4463V22.2998C9.55984 22.1981 9.4839 22.1156 9.39034 22.1156H8.71988C8.56323 22.1156 8.41946 22.0212 8.34573 21.8709L7.19804 19.7796C7.12102 19.6214 7.1357 19.4296 7.23474 19.2873L8.26355 17.8099C8.34352 17.6956 8.46826 17.6278 8.60068 17.6278H11.4693C11.6039 17.6278 11.7308 17.6979 11.8104 17.8164C11.89 17.9348 11.9131 18.087 11.8727 18.2269L10.9481 21.3937C10.9187 21.4934 10.9216 21.6014 10.9565 21.6991L11.5496 23.3598H13.3905V22.9273L13.0861 21.8872C13.0575 21.79 13.0597 21.6851 13.0923 21.5891L14.3332 17.9288C14.3948 17.7478 14.5532 17.6278 14.7304 17.6278H15.9965C16.1113 17.6278 16.2213 17.6789 16.3013 17.7693L19.8082 23.0353C19.8082 23.0353 21.5992 23.0353 22.1963 23.0353C22.7934 23.0353 22.5624 21.7406 21.9975 21.6831C20.9275 21.5751 19.5598 18.331 18.9627 17.1953C18.3656 16.0599 20.1189 12.544 21.4502 12.3833C22.7934 12.221 23.49 11.6259 23.6891 10.8147C24.087 10.3283 24.1369 9.24681 23.6392 8.92234Z" fill="#CBCBCB"/>
</svg>
