<svg width="25" height="24" viewBox="0 0 25 24" fill="none" xmlns="http://www.w3.org/2000/svg">
<path d="M12.9912 9.60086L20.3125 12.2782V23.2C20.3125 23.4122 20.2302 23.6157 20.0837 23.7657C19.9372 23.9157 19.7385 24 19.5312 24H16.4062C16.199 24 16.0003 23.9157 15.8538 23.7657C15.7073 23.6157 15.625 23.4122 15.625 23.2V17.6004H7.8125V23.2C7.8125 23.4122 7.73019 23.6157 7.58368 23.7657C7.43716 23.9157 7.23845 24 7.03125 24H3.90625C3.69905 24 3.50034 23.9157 3.35382 23.7657C3.20731 23.6157 3.125 23.4122 3.125 23.2V12.5052C1.31055 11.8427 0 10.0838 0 8.00095C0 7.57663 0.16462 7.16969 0.457646 6.86965C0.750671 6.56961 1.1481 6.40105 1.5625 6.40105C1.9769 6.40105 2.37433 6.56961 2.66735 6.86965C2.96038 7.16969 3.125 7.57663 3.125 8.00095C3.12577 8.42503 3.29064 8.83151 3.5835 9.13138C3.87636 9.43125 4.27334 9.60006 4.6875 9.60086H12.9912ZM25 4.00119V5.6011C25 6.44974 24.6708 7.26362 24.0847 7.8637C23.4987 8.46378 22.7038 8.8009 21.875 8.8009H20.3125V10.5798L14.0625 8.29443V0.801381C14.0625 0.0889237 14.9033 -0.268055 15.396 0.235915L16.728 1.60133H19.3467C19.8794 1.60133 20.5063 1.99731 20.7441 2.48578L21.0938 3.20124H24.2188C24.426 3.20124 24.6247 3.28552 24.7712 3.43554C24.9177 3.58556 25 3.78903 25 4.00119ZM19.5312 4.00119C19.5312 3.84297 19.4854 3.68831 19.3996 3.55676C19.3137 3.42521 19.1917 3.32268 19.049 3.26213C18.9062 3.20158 18.7491 3.18574 18.5976 3.21661C18.446 3.24748 18.3068 3.32366 18.1976 3.43554C18.0883 3.54741 18.0139 3.68995 17.9838 3.84513C17.9536 4.0003 17.9691 4.16115 18.0282 4.30732C18.0874 4.45349 18.1875 4.57843 18.316 4.66633C18.4444 4.75423 18.5955 4.80114 18.75 4.80114C18.9572 4.80114 19.1559 4.71686 19.3024 4.56684C19.4489 4.41682 19.5312 4.21335 19.5312 4.00119Z" fill="#CBCBCB"/>
</svg>
