<svg width="20" height="21" viewBox="0 0 20 21" fill="none" xmlns="http://www.w3.org/2000/svg">
<rect y="0.5" width="20" height="20" rx="10" fill="#5AC1F9"/>
<g clip-path="url(#clip0_148_8)">
<path d="M12.0682 4.00184C11.0022 4.12504 10.397 5.29373 10.32 6.30884C10.194 7.21128 10.588 8.36281 11.5358 8.57032C12.3573 8.64358 13.0108 7.87188 13.2792 7.13574C13.5962 6.21433 13.6055 4.98386 12.8363 4.29357C12.6226 4.1084 12.3482 3.99591 12.0682 4.00184ZM7.71996 4.05016C6.83298 4.11432 6.37836 5.14511 6.44005 5.97252C6.4476 7.07886 7.05515 8.32316 8.16307 8.58579C8.98932 8.67515 9.54021 7.79884 9.59155 7.03262C9.69699 5.86 9.17744 4.4395 8.0009 4.08546C7.90945 4.06021 7.81461 4.04767 7.71996 4.05016ZM14.8471 7.6031C13.6571 7.69033 12.9045 8.95857 12.8528 10.1046C12.7902 10.8509 13.2724 11.7895 14.0843 11.7381C15.2985 11.6094 16.0305 10.2561 16.0003 9.08033C15.9925 8.40342 15.5635 7.63132 14.8471 7.6031ZM4.00916 9.15016C3.89897 10.42 4.78757 11.8553 6.07842 11.9353C6.8608 11.883 7.22972 10.9743 7.14005 10.2554C7.0686 9.19466 6.35935 8.10842 5.43786 7.96651C4.51636 7.8246 3.99455 8.47563 4.00916 9.15016ZM10.1365 10.2334C8.92635 10.2363 7.81988 11.0276 7.22833 12.0982C6.7327 12.8983 6.32751 13.804 6.25045 14.7599C6.26731 15.4971 6.97069 16.1106 7.67599 15.9638C8.682 15.8332 9.58097 15.1346 10.6271 15.2655C11.4965 15.3349 12.2135 16.009 13.0913 15.9992C13.9436 16.0312 14.4352 15.0545 14.1102 14.2895C13.7604 13.1942 13.0823 12.2416 12.3545 11.3836C11.7739 10.7512 11.0135 10.2054 10.1365 10.2334Z" fill="white"/>
</g>
<defs>
<clipPath id="clip0_148_8">
<rect width="12" height="12" fill="white" transform="translate(3.99994 4)"/>
</clipPath>
</defs>
</svg>
