<svg width="20" height="20" viewBox="0 0 20 20" fill="none" xmlns="http://www.w3.org/2000/svg">
<rect width="20" height="20" rx="5" fill="#5AC1F9"/>
<g clip-path="url(#clip0_148_8)">
<path d="M12.0683 3.50187C11.0023 3.62507 10.397 4.79376 10.32 5.80887C10.1941 6.71131 10.5881 7.86284 11.5359 8.07035C12.3573 8.14361 13.0108 7.37191 13.2793 6.63577C13.5963 5.71436 13.6056 4.48389 12.8363 3.7936C12.6226 3.60843 12.3483 3.49594 12.0683 3.50187ZM7.72002 3.55019C6.83304 3.61435 6.37842 4.64514 6.44012 5.47255C6.44766 6.57889 7.05521 7.82319 8.16313 8.08582C8.98938 8.17518 9.54027 7.29887 9.59161 6.53265C9.69705 5.36003 9.1775 3.93953 8.00096 3.58549C7.90951 3.56024 7.81467 3.5477 7.72002 3.55019ZM14.8472 7.10313C13.6572 7.19036 12.9046 8.4586 12.8529 9.60462C12.7903 10.351 13.2724 11.2896 14.0843 11.2381C15.2985 11.1094 16.0305 9.75616 16.0004 8.58036C15.9926 7.90345 15.5636 7.13135 14.8472 7.10313ZM4.00922 8.65019C3.89903 9.92005 4.78763 11.3554 6.07848 11.4353C6.86086 11.3831 7.22978 10.4744 7.14012 9.75545C7.06866 8.69469 6.35941 7.60845 5.43792 7.46654C4.51642 7.32463 3.99461 7.97566 4.00922 8.65019ZM10.1366 9.73347C8.92641 9.73629 7.81994 10.5276 7.22839 11.5982C6.73276 12.3983 6.32758 13.3041 6.25051 14.2599C6.26737 14.9971 6.97075 15.6107 7.67605 15.4638C8.68206 15.3332 9.58103 14.6346 10.6272 14.7655C11.4965 14.8349 12.2135 15.5091 13.0913 15.4993C13.9436 15.5313 14.4353 14.5546 14.1102 13.7896C13.7605 12.6942 13.0824 11.7416 12.3546 10.8837C11.774 10.2513 11.0135 9.70547 10.1366 9.73347Z" fill="white"/>
</g>
<defs>
<clipPath id="clip0_148_8">
<rect width="12" height="12" fill="white" transform="translate(4 3.5)"/>
</clipPath>
</defs>
</svg>
