<svg width="170" height="150" viewBox="0 0 170 150" fill="none" xmlns="http://www.w3.org/2000/svg">
<path d="M135.152 98.2519C130.973 76.1894 106.961 58.2519 81.6023 58.2519C54.048 58.2519 29.823 77.9394 27.4855 102.189C26.5646 111.564 29.9646 120.439 36.9771 127.127C43.9188 133.814 53.6938 137.502 64.3188 137.502H97.4689C109.44 137.502 119.923 133.377 127.077 125.939C134.231 118.502 137.065 108.627 135.152 98.2519Z" fill="white"/>
<path d="M72.8137 49.125C84.2759 49.125 93.5678 40.9262 93.5678 30.8125C93.5678 20.6988 84.2759 12.5 72.8137 12.5C61.3515 12.5 52.0596 20.6988 52.0596 30.8125C52.0596 40.9262 61.3515 49.125 72.8137 49.125Z" fill="white"/>
<path d="M119.992 56.4278C129.537 56.4278 137.275 49.6001 137.275 41.1777C137.275 32.7554 129.537 25.9277 119.992 25.9277C110.446 25.9277 102.708 32.7554 102.708 41.1777C102.708 49.6001 110.446 56.4278 119.992 56.4278Z" fill="white"/>
<path d="M145.56 80.8206C153.188 80.8206 159.372 75.3638 159.372 68.6325C159.372 61.9018 153.188 56.4453 145.56 56.4453C137.932 56.4453 131.747 61.9018 131.747 68.6325C131.747 75.3638 137.932 80.8206 145.56 80.8206Z" fill="white"/>
<path d="M27.9083 68.635C37.4536 68.635 45.1917 61.8071 45.1917 53.3847C45.1917 44.9624 37.4536 38.1348 27.9083 38.1348C18.363 38.1348 10.625 44.9624 10.625 53.3847C10.625 61.8071 18.363 68.635 27.9083 68.635Z" fill="white"/>
</svg>
