<svg width="186" height="149" viewBox="0 0 186 149" fill="none" xmlns="http://www.w3.org/2000/svg">
<path fill-rule="evenodd" clip-rule="evenodd" d="M111.427 5.80759C100.866 -1.93567 84.9525 -1.93567 74.3915 5.80759L3.11817 58.0663C-0.717042 60.8782 -1.06248 65.7224 2.34656 68.886C5.7556 72.0489 11.6281 72.334 15.4633 69.5221L18.5817 67.236V110.281C18.5812 117.075 18.5808 122.929 19.3448 127.617C20.1637 132.64 22.0102 137.456 26.7455 141.362C31.4807 145.268 37.3187 146.791 43.4091 147.467C49.092 148.097 56.1885 148.096 64.4249 148.096H121.394C129.63 148.096 136.726 148.097 142.41 147.467C148.5 146.791 154.338 145.268 159.073 141.362C163.809 137.456 165.655 132.64 166.474 127.617C167.238 122.929 167.238 117.075 167.237 110.282V67.236L170.355 69.5221C174.19 72.334 180.063 72.0489 183.472 68.886C186.881 65.7224 186.536 60.8782 182.701 58.0663L111.427 5.80759ZM92.9093 102.113C87.7779 102.113 83.6183 105.544 83.6183 109.777V125.104C83.6183 129.337 79.4588 132.768 74.3274 132.768C69.1961 132.768 65.0364 129.337 65.0364 125.104V109.777C65.0364 97.0788 77.5151 86.7856 92.9093 86.7856C108.303 86.7856 120.782 97.0788 120.782 109.777V125.104C120.782 129.337 116.623 132.768 111.491 132.768C106.36 132.768 102.2 129.337 102.2 125.104V109.777C102.2 105.544 98.0407 102.113 92.9093 102.113Z" fill="white"/>
</svg>
