<svg  viewBox="0 0 40 41" fill="none" xmlns="http://www.w3.org/2000/svg">
<rect y="0.65802" width="40" height="40" rx="10" fill="#144480"/>
<g clip-path="url(#clip0_148_38)">
<path d="M24.1364 7.66167C22.0044 7.90806 20.7939 10.2454 20.6399 12.2757C20.3881 14.0805 21.176 16.3836 23.0717 16.7986C24.7145 16.9452 26.0215 15.4017 26.5584 13.9295C27.1925 12.0867 27.211 9.62572 25.6725 8.24514C25.2452 7.87479 24.6965 7.64982 24.1364 7.66167ZM15.4399 7.7583C13.666 7.88663 12.7567 9.9482 12.8801 11.603C12.8952 13.8157 14.1103 16.3043 16.3261 16.8296C17.9786 17.0083 19.0804 15.2557 19.1831 13.7232C19.394 11.378 18.3549 8.53699 16.0018 7.82891C15.8189 7.7784 15.6292 7.75333 15.4399 7.7583ZM29.6942 14.8642C27.3142 15.0386 25.8091 17.5751 25.7056 19.8672C25.5804 21.3599 26.5447 23.2371 28.1685 23.1342C30.5969 22.8768 32.061 20.1702 32.0006 17.8187C31.985 16.4648 31.1271 14.9206 29.6942 14.8642ZM8.01832 17.9583C7.79794 20.498 9.57514 23.3686 12.1568 23.5285C13.7216 23.424 14.4594 21.6067 14.2801 20.1688C14.1372 18.0473 12.7187 15.8748 10.8757 15.591C9.03272 15.3072 7.9891 16.6092 8.01832 17.9583ZM20.2731 20.1249C17.8527 20.1305 15.6398 21.7131 14.4567 23.8543C13.4654 25.4545 12.655 27.266 12.5009 29.1778C12.5346 30.6522 13.9414 31.8792 15.352 31.5856C17.364 31.3244 19.1619 29.9271 21.2542 30.1889C22.993 30.3277 24.427 31.676 26.1825 31.6565C27.8871 31.7205 28.8704 29.7671 28.2204 28.2371C27.5209 26.0464 26.1646 24.1412 24.709 22.4253C23.5478 21.1604 22.0269 20.0689 20.2731 20.1249Z" fill="#FAF7F7"/>
</g>
<defs>
<clipPath id="clip0_148_38">
<rect width="24" height="24" fill="white" transform="translate(7.99988 7.65799)"/>
</clipPath>
</defs>
</svg>
