<svg width="21" height="21" viewBox="0 0 21 21" fill="none" xmlns="http://www.w3.org/2000/svg">
<path fill-rule="evenodd" clip-rule="evenodd" d="M12.2405 1C11.1038 -0.04571 9.39099 -0.04571 8.25429 1L0.58305 8.05743C0.17026 8.43716 0.13308 9.09137 0.5 9.51861C0.86692 9.94574 1.49899 9.98424 1.91177 9.60451L2.24741 9.29578V15.1089C2.24736 16.0264 2.24732 16.817 2.32955 17.4501C2.41768 18.1285 2.61643 18.7789 3.12609 19.3063C3.63575 19.8338 4.2641 20.0395 4.91962 20.1307C5.53127 20.2158 6.29508 20.2157 7.18157 20.2157H13.3132C14.1997 20.2157 14.9635 20.2158 15.5752 20.1307C16.2307 20.0395 16.8591 19.8338 17.3687 19.3063C17.8784 18.7789 18.0771 18.1285 18.1653 17.4501C18.2475 16.817 18.2475 16.0264 18.2474 15.109V9.29578L18.583 9.60451C18.9958 9.98424 19.6279 9.94574 19.9948 9.51861C20.3617 9.09137 20.3246 8.43716 19.9118 8.05743L12.2405 1ZM10.2474 14.0059C9.69509 14.0059 9.24739 14.4692 9.24739 15.0408V17.1108C9.24739 17.6824 8.79969 18.1458 8.24739 18.1458C7.69511 18.1458 7.24739 17.6824 7.24739 17.1108V15.0408C7.24739 13.326 8.59049 11.9359 10.2474 11.9359C11.9043 11.9359 13.2474 13.326 13.2474 15.0408V17.1108C13.2474 17.6824 12.7997 18.1458 12.2474 18.1458C11.6951 18.1458 11.2474 17.6824 11.2474 17.1108V15.0408C11.2474 14.4692 10.7997 14.0059 10.2474 14.0059Z" fill="#CBCBCB"/>
</svg>
