<svg width="20" height="20" viewBox="0 0 20 20" fill="none" xmlns="http://www.w3.org/2000/svg">
<path fill-rule="evenodd" clip-rule="evenodd" d="M11.9931 0.784302C10.8564 -0.261408 9.14355 -0.261408 8.00685 0.784302L0.335613 7.84173C-0.0771762 8.22146 -0.114356 8.87567 0.252563 9.30291C0.619483 9.73004 1.25155 9.76855 1.66433 9.38881L1.99997 9.08008V14.8932C1.99992 15.8107 1.99988 16.6013 2.08211 17.2344C2.17024 17.9128 2.36899 18.5632 2.87865 19.0906C3.38831 19.6181 4.01666 19.8238 4.67218 19.915C5.28384 20.0001 6.04765 20 6.93414 20H13.0657C13.9522 20 14.716 20.0001 15.3277 19.915C15.9832 19.8238 16.6116 19.6181 17.1212 19.0906C17.6309 18.5632 17.8296 17.9128 17.9178 17.2344C18 16.6013 18 15.8107 17.9999 14.8933V9.08008L18.3355 9.38881C18.7483 9.76855 19.3804 9.73004 19.7473 9.30291C20.1142 8.87567 20.0771 8.22146 19.6643 7.84173L11.9931 0.784302ZM9.99995 13.7902C9.44765 13.7902 8.99995 14.2535 8.99995 14.8251V16.8951C8.99995 17.4667 8.55225 17.9301 7.99995 17.9301C7.44768 17.9301 6.99996 17.4667 6.99996 16.8951V14.8251C6.99996 13.1103 8.34305 11.7202 9.99995 11.7202C11.6569 11.7202 12.9999 13.1103 12.9999 14.8251V16.8951C12.9999 17.4667 12.5522 17.9301 12 17.9301C11.4477 17.9301 11 17.4667 11 16.8951V14.8251C11 14.2535 10.5523 13.7902 9.99995 13.7902Z" fill="#FFBD59"/>
</svg>
