<svg width="43" height="42" viewBox="0 0 43 42" fill="none" xmlns="http://www.w3.org/2000/svg">
<g clip-path="url(#clip0_219_12)">
<path d="M34.0236 10.9106C31.6153 9.72867 28.7626 11.3683 27.2285 13.399C25.7437 15.1266 25.0156 18.0808 26.7285 19.7985C28.3569 21.063 30.7744 20.3235 32.334 19.1382C34.2463 17.6291 35.9291 15.0539 35.2445 12.5624C35.0455 11.8841 34.6205 11.2767 34.0236 10.9106ZM24.8139 5.13428C22.8619 4.07021 20.5124 5.62342 19.5236 7.44689C18.0439 9.78372 17.6396 13.2218 19.6145 15.2718C21.2314 16.5766 23.5745 15.4784 24.7182 13.9364C26.5251 11.6129 27.3527 7.92329 25.357 5.5883C25.1988 5.41157 25.0163 5.25701 24.8139 5.13428ZM34.9996 22.2406C32.379 20.8154 29.082 22.4652 27.424 24.8054C26.2834 26.2903 26.0287 28.916 27.8056 29.9053C30.5331 31.276 33.9019 29.4196 35.4278 26.9061C36.3265 25.472 36.4681 23.2684 34.9996 22.2406ZM10.1159 10.8434C8.1676 13.365 8.09611 17.5847 10.7027 19.4978C12.4187 20.4455 14.4229 19.0332 15.2061 17.4001C16.4898 15.0727 16.4666 11.8296 14.7205 10.2855C12.9744 8.7414 10.997 9.40513 10.1159 10.8434ZM21.5375 21.4045C18.9886 19.7745 15.5921 19.9429 12.9008 21.3948C10.7769 22.4074 8.70039 23.7645 7.24619 25.6705C6.28512 27.2436 6.93496 29.4847 8.6167 30.1294C10.9089 31.2147 13.7438 30.9607 15.7669 32.6501C17.5014 33.9713 18.0979 36.3582 19.9572 37.5242C21.7063 38.7436 24.0606 37.3543 24.4111 35.3061C25.1562 32.5298 25.0179 29.6098 24.6471 26.8216C24.281 24.7068 23.4195 22.5311 21.5375 21.4045Z" fill="#144480"/>
</g>
<defs>
<clipPath id="clip0_219_12">
<rect width="30" height="30" fill="white" transform="translate(17.0586) rotate(32.7324)"/>
</clipPath>
</defs>
</svg>
