<svg width="24" height="24" viewBox="0 0 24 24" fill="none" xmlns="http://www.w3.org/2000/svg">
<path d="M16.1365 0.00380351C14.0045 0.250194 12.7941 2.58758 12.64 4.6178C12.3882 6.42268 13.1761 8.72574 15.0718 9.14075C16.7146 9.28728 18.0217 7.74387 18.5585 6.2716C19.1926 4.42878 19.2111 1.96785 17.6726 0.58727C17.2453 0.216922 16.6966 -0.00805232 16.1365 0.00380351ZM7.44004 0.100433C5.66609 0.228761 4.75684 2.29033 4.88023 3.94517C4.89532 6.15784 6.11042 8.64645 8.32627 9.17171C9.97876 9.35041 11.0805 7.59781 11.1832 6.06536C11.3941 3.72012 10.355 0.879122 8.00191 0.171046C7.81902 0.120534 7.62934 0.0954647 7.44004 0.100433ZM21.6944 7.20633C19.3143 7.38078 17.8092 9.91727 17.7057 12.2093C17.5805 13.702 18.5449 15.5792 20.1686 15.4763C22.597 15.2189 24.0611 12.5124 24.0007 10.1608C23.9851 8.80696 23.1272 7.26275 21.6944 7.20633ZM0.0184391 10.3004C-0.201934 12.8402 1.57527 15.7108 4.15696 15.8707C5.72172 15.7662 6.45957 13.9488 6.28023 12.511C6.13733 10.3894 4.71883 8.21695 2.87583 7.93314C1.03284 7.64933 -0.0107826 8.95138 0.0184391 10.3004ZM12.2732 12.467C9.85282 12.4726 7.63988 14.0552 6.45678 16.1965C5.46552 17.7966 4.65515 19.6082 4.50103 21.5199C4.53475 22.9943 5.9415 24.2214 7.35209 23.9277C9.36412 23.6665 11.1621 22.2693 13.2543 22.5311C14.9931 22.6699 16.4271 24.0182 18.1826 23.9986C19.8872 24.0626 20.8706 22.1092 20.2205 20.5792C19.521 18.3885 18.1648 16.4833 16.7091 14.7674C15.5479 13.5026 14.0271 12.411 12.2732 12.467Z" fill="#D9D9D9"/>
</svg>
