<svg width="24" height="24" viewBox="0 0 24 24" fill="none" xmlns="http://www.w3.org/2000/svg">
<path d="M16.1364 0.00377299C14.0044 0.250164 12.7939 2.58755 12.6399 4.61777C12.3881 6.42265 13.176 8.72571 15.0717 9.14072C16.7145 9.28725 18.0215 7.74384 18.5584 6.27157C19.1925 4.42875 19.211 1.96782 17.6725 0.587239C17.2452 0.216892 16.6965 -0.00808284 16.1364 0.00377299ZM7.43992 0.100402C5.66597 0.22873 4.75672 2.2903 4.88011 3.94514C4.8952 6.15781 6.1103 8.64642 8.32614 9.17168C9.97864 9.35038 11.0804 7.59778 11.1831 6.06533C11.394 3.72009 10.3549 0.879091 8.00179 0.171015C7.8189 0.120504 7.62922 0.0954341 7.43992 0.100402ZM21.6942 7.2063C19.3142 7.38075 17.8091 9.91724 17.7056 12.2093C17.5804 13.702 18.5447 15.5792 20.1685 15.4763C22.5969 15.2189 24.061 12.5123 24.0006 10.1608C23.985 8.80693 23.1271 7.26272 21.6942 7.2063ZM0.018317 10.3004C-0.202056 12.8401 1.57514 15.7107 4.15684 15.8706C5.7216 15.7661 6.45944 13.9488 6.28011 12.5109C6.13721 10.3894 4.71871 8.21692 2.87571 7.93311C1.03272 7.6493 -0.0109046 8.95134 0.018317 10.3004ZM12.2731 12.467C9.8527 12.4726 7.63976 14.0552 6.45665 16.1964C5.46539 17.7966 4.65503 19.6081 4.50091 21.5199C4.53463 22.9943 5.94138 24.2213 7.35197 23.9277C9.364 23.6665 11.1619 22.2692 13.2542 22.531C14.993 22.6698 16.427 24.0181 18.1825 23.9986C19.8871 24.0626 20.8704 22.1092 20.2204 20.5792C19.5209 18.3885 18.1646 16.4833 16.709 14.7674C15.5478 13.5025 14.0269 12.411 12.2731 12.467Z" fill="#FAF7F7"/>
</svg>
